<?xml version="1.0" encoding="utf-8"?>
<!-- Designed by Vexels.com - 2016 All Rights Reserved - https://vexels.com/terms-and-conditions/  -->

<svg version="1.0" id="Capa_1" xmlns="http://www.w3.org/2000/svg" xmlns:xlink="http://www.w3.org/1999/xlink" x="0px" y="0px"
	 width="1200px" height="1200px" viewBox="0 0 1200 1200" enable-background="new 0 0 1200 1200" xml:space="preserve">

	<path fill="#5CADCE" d="M350.016,537.488c0,0,100.567-67.903,219.095-88.689c-49.977,16.364-186.197,91.551-187.523,92.877
		c-1.326,1.327-28.305,0.884-28.305,0.884L350.016,537.488z"/>


	<path fill="#FFFFFF" d="M479.403,528.925c-1.533,0-31.889,5.212-31.889,5.212s29.129,0.92,30.356,0.92
		C479.096,535.058,479.403,528.925,479.403,528.925z"/>
	<path fill="#FFFFFF" d="M478.483,539.657c0.498-1.162-31.889-1.227-32.809-0.307c-0.92,0.92,0,7.359,0,7.359
		s-1.534-6.439,7.053-6.439C461.313,540.27,477.563,541.804,478.483,539.657z"/>
	<path fill="#FFFFFF" d="M472.658,515.74c1.26,0.54-25.757,15.024-25.757,15.024l8.585-15.331
		C455.486,515.433,466.219,512.981,472.658,515.74z"/>

</svg>
